<?xml version="1.0" encoding="UTF-8" standalone="no"?>
<svg
   xmlns:dc="http://purl.org/dc/elements/1.1/"
   xmlns:cc="http://creativecommons.org/ns#"
   xmlns:rdf="http://www.w3.org/1999/02/22-rdf-syntax-ns#"
   xmlns:svg="http://www.w3.org/2000/svg"
   xmlns="http://www.w3.org/2000/svg"
   xmlns:sodipodi="http://sodipodi.sourceforge.net/DTD/sodipodi-0.dtd"
   xmlns:inkscape="http://www.inkscape.org/namespaces/inkscape"
   width="30.186708mm"
   height="8.7461386mm"
   viewBox="0 0 30.186708 8.7461388"
   version="1.1"
   id="svg1182"
   inkscape:version="1.0.1 (3bc2e813f5, 2020-09-07)"
   sodipodi:docname="arm.svg">
  <defs
     id="defs1176" />
  <sodipodi:namedview
     id="base"
     pagecolor="#ffffff"
     bordercolor="#666666"
     borderopacity="1.0"
     inkscape:pageopacity="0.0"
     inkscape:pageshadow="2"
     inkscape:zoom="0.35"
     inkscape:cx="232.23316"
     inkscape:cy="363.48959"
     inkscape:document-units="mm"
     inkscape:current-layer="layer1"
     inkscape:document-rotation="0"
     showgrid="false"
     fit-margin-top="0"
     fit-margin-left="0"
     fit-margin-right="0"
     fit-margin-bottom="0"
     inkscape:window-width="1920"
     inkscape:window-height="1027"
     inkscape:window-x="900"
     inkscape:window-y="178"
     inkscape:window-maximized="1" />
  <metadata
     id="metadata1179">
    <rdf:RDF>
      <cc:Work
         rdf:about="">
        <dc:format>image/svg+xml</dc:format>
        <dc:type
           rdf:resource="http://purl.org/dc/dcmitype/StillImage" />
        <dc:title></dc:title>
      </cc:Work>
    </rdf:RDF>
  </metadata>
  <g
     inkscape:label="Layer 1"
     inkscape:groupmode="layer"
     id="layer1"
     transform="translate(-44.388312,-51.99338)">
    <g
       id="g1097"
       transform="matrix(0.37064378,0,0,0.36984794,-325.56164,-227.64081)"
       style="stroke-width:2.70091">
      <path
         style="fill:#c2d368;fill-opacity:1;fill-rule:evenodd;stroke:#646365;stroke-width:2.70091;stroke-linecap:butt;stroke-linejoin:miter;stroke-miterlimit:4;stroke-dasharray:none;stroke-opacity:1"
         d="m 1018.1094,759.9521 c 4.4506,1.53513 8.9387,2.98885 13.5048,4.13568 4.4689,1.12242 8.9593,2.44857 13.5613,2.67808 4.2085,0.20989 8.4373,-0.45309 12.5838,-1.203 2.0307,-0.36726 4.0192,-1.17752 5.9965,-2.01532 l 5.1462,10.07368 c -3.2606,1.46183 -6.6503,2.72381 -10.1482,3.45368 -4.9537,1.03362 -10.069,1.16466 -15.1284,1.26437 -9.2182,0.18167 -18.4569,-0.31853 -27.6331,-1.21587 -4.2234,-0.41301 -8.9926,0.34252 -12.5858,-1.91489 -1.7253,-1.08384 -2.8929,-3.08538 -3.45112,-5.04487 -0.6837,-2.40009 -0.6624,-5.1921 0.33622,-7.47918 0.7969,-1.82524 2.4022,-3.38741 4.1952,-4.25429 2.2746,-1.09968 5.0297,-1.14513 7.5351,-0.81905 2.1559,0.28059 4.0323,1.63209 6.0875,2.34098 z"
         id="path978"
         sodipodi:nodetypes="ssssccsssssssss" />
      <path
         style="fill:#edc8c4;fill-opacity:1;fill-rule:evenodd;stroke:#646365;stroke-width:2.70091;stroke-linecap:butt;stroke-linejoin:miter;stroke-miterlimit:4;stroke-dasharray:none;stroke-opacity:1"
         d="m 1063.7558,763.54754 c 3.4764,-1.473 6.9183,-3.03109 10.4941,-2.41622 1.3788,0.23709 2.7761,1.1583 3.4567,2.38065 0.604,1.08478 0.6494,2.57089 0.1802,3.72043 -0.6209,1.52135 -2.289,2.38118 -3.6156,3.35079 -1.6602,1.21342 -3.4928,2.19676 -5.3692,3.03803 z"
         id="path978-6"
         sodipodi:nodetypes="csssscc" />
    </g>
  </g>
</svg>
