<?xml version="1.0" encoding="UTF-8" standalone="no"?>
<svg
   xmlns:dc="http://purl.org/dc/elements/1.1/"
   xmlns:cc="http://creativecommons.org/ns#"
   xmlns:rdf="http://www.w3.org/1999/02/22-rdf-syntax-ns#"
   xmlns:svg="http://www.w3.org/2000/svg"
   xmlns="http://www.w3.org/2000/svg"
   xmlns:sodipodi="http://sodipodi.sourceforge.net/DTD/sodipodi-0.dtd"
   xmlns:inkscape="http://www.inkscape.org/namespaces/inkscape"
   width="49.170269mm"
   height="43.478806mm"
   viewBox="0 0 49.170269 43.478806"
   version="1.1"
   id="svg1182"
   inkscape:version="1.0.1 (3bc2e813f5, 2020-09-07)"
   sodipodi:docname="back_leg.svg">
  <defs
     id="defs1176" />
  <sodipodi:namedview
     id="base"
     pagecolor="#ffffff"
     bordercolor="#666666"
     borderopacity="1.0"
     inkscape:pageopacity="0.0"
     inkscape:pageshadow="2"
     inkscape:zoom="0.35"
     inkscape:cx="-18.508361"
     inkscape:cy="410.73612"
     inkscape:document-units="mm"
     inkscape:current-layer="layer1"
     inkscape:document-rotation="0"
     showgrid="false"
     fit-margin-top="0"
     fit-margin-left="0"
     fit-margin-right="0"
     fit-margin-bottom="0"
     inkscape:window-width="1920"
     inkscape:window-height="1027"
     inkscape:window-x="900"
     inkscape:window-y="178"
     inkscape:window-maximized="1" />
  <metadata
     id="metadata1179">
    <rdf:RDF>
      <cc:Work
         rdf:about="">
        <dc:format>image/svg+xml</dc:format>
        <dc:type
           rdf:resource="http://purl.org/dc/dcmitype/StillImage" />
        <dc:title></dc:title>
      </cc:Work>
    </rdf:RDF>
  </metadata>
  <g
     inkscape:label="Layer 1"
     inkscape:groupmode="layer"
     id="layer1"
     transform="translate(-110.73034,-39.492736)">
    <g
       id="g1101"
       transform="matrix(0.37064378,0,0,0.36984794,-291.89375,-227.57517)"
       style="stroke-width:2.70091">
      <path
         style="fill:#352b42;fill-opacity:1;fill-rule:evenodd;stroke:#646365;stroke-width:2.70091;stroke-linecap:butt;stroke-linejoin:miter;stroke-miterlimit:4;stroke-dasharray:none;stroke-opacity:1"
         d="m 1204.4945,767.15525 c -3.4786,1.5431 -7.0603,2.99475 -9.9533,4.85706 -9.3693,6.03127 -19.7378,10.4665 -28.8697,16.8515 -8.0107,5.60104 -15.5598,11.90785 -22.578,18.71133 -5.098,4.94205 -10.1903,10.04028 -14.0948,15.97059 -1.6434,2.49602 -1.6773,6.03336 -3.8302,8.10594 -3.4404,3.31199 -8.5166,4.58013 -13.1767,5.62369 -3.6087,0.8081 -7.5884,1.61245 -11.0864,0.41275 -2.7062,-0.92813 -4.749,-3.31407 -6.5755,-5.51606 -2.7363,-3.29878 -5.3175,-7.03657 -6.3008,-11.20817 -0.606,-2.57073 -0.5338,-5.43931 0.3892,-7.91398 1.0105,-2.70937 3.1708,-4.92878 5.3518,-6.82746 12.1994,-10.62019 27.747,-16.64795 41.9486,-24.38929 8.2051,-4.47261 16.569,-8.65328 24.9756,-12.7344 10.8862,-5.28483 25.7631,-7.43578 34.3023,-16.01017"
         id="path1063" />
      <path
         style="fill:#80493a;fill-opacity:1;fill-rule:evenodd;stroke:#646365;stroke-width:2.70091;stroke-linecap:butt;stroke-linejoin:miter;stroke-miterlimit:4;stroke-dasharray:none;stroke-opacity:1"
         d="m 1194.9966,753.08858 c 4.4763,-4.4947 5.9825,-10.19719 6.5634,-16.51397 0.396,-4.30543 -5.7958,-9.16883 -3.1443,-12.58393 v 0 c 0.7096,-0.91398 2.4139,-0.48918 3.4713,-0.0193 2.592,1.15181 4.2676,3.88019 5.6676,6.34699 2.9744,5.24094 3.0257,11.71479 5.403,17.25223 1.233,2.872 5.2509,5.14704 4.5571,8.19452 -1.3184,5.79059 -7.0157,8.72659 -13.0202,11.39013"
         id="path984"
         sodipodi:nodetypes="ccccccccc" />
    </g>
  </g>
</svg>
