<?xml version="1.0" encoding="UTF-8" standalone="no"?>
<svg
   xmlns:dc="http://purl.org/dc/elements/1.1/"
   xmlns:cc="http://creativecommons.org/ns#"
   xmlns:rdf="http://www.w3.org/1999/02/22-rdf-syntax-ns#"
   xmlns:svg="http://www.w3.org/2000/svg"
   xmlns="http://www.w3.org/2000/svg"
   xmlns:sodipodi="http://sodipodi.sourceforge.net/DTD/sodipodi-0.dtd"
   xmlns:inkscape="http://www.inkscape.org/namespaces/inkscape"
   width="43.750607mm"
   height="23.326097mm"
   viewBox="0 0 43.750606 23.326098"
   version="1.1"
   id="svg1182"
   inkscape:version="1.0.1 (3bc2e813f5, 2020-09-07)"
   sodipodi:docname="body.svg">
  <defs
     id="defs1176" />
  <sodipodi:namedview
     id="base"
     pagecolor="#ffffff"
     bordercolor="#666666"
     borderopacity="1.0"
     inkscape:pageopacity="0.0"
     inkscape:pageshadow="2"
     inkscape:zoom="0.35"
     inkscape:cx="-1519.0983"
     inkscape:cy="395.53289"
     inkscape:document-units="mm"
     inkscape:current-layer="layer1"
     inkscape:document-rotation="0"
     showgrid="false"
     fit-margin-top="0"
     fit-margin-left="0"
     fit-margin-right="0"
     fit-margin-bottom="0"
     inkscape:window-width="1920"
     inkscape:window-height="1027"
     inkscape:window-x="900"
     inkscape:window-y="178"
     inkscape:window-maximized="1" />
  <metadata
     id="metadata1179">
    <rdf:RDF>
      <cc:Work
         rdf:about="">
        <dc:format>image/svg+xml</dc:format>
        <dc:type
           rdf:resource="http://purl.org/dc/dcmitype/StillImage" />
        <dc:title></dc:title>
      </cc:Work>
    </rdf:RDF>
  </metadata>
  <g
     inkscape:label="Layer 1"
     inkscape:groupmode="layer"
     id="layer1"
     transform="translate(-507.76143,-43.515256)">
    <path
       style="fill:#8ab060;fill-opacity:1;fill-rule:evenodd;stroke:#646365;stroke-width:0.999998;stroke-linecap:butt;stroke-linejoin:miter;stroke-miterlimit:4;stroke-dasharray:none;stroke-opacity:1"
       d="m 516.04543,56.591204 c 1.0221,0.648079 1.89063,1.514809 2.77006,2.34555 0.54561,0.515389 0.98386,1.140039 1.55025,1.6326 0.76408,0.66448 1.56252,1.32045 2.47227,1.76626 0.89424,0.43821 1.89937,0.603529 2.86256,0.85746 1.81538,0.478569 3.63728,0.955739 5.49102,1.253799 1.85644,0.298501 3.75607,0.255131 5.61595,0.531551 1.00855,0.149899 1.98535,0.48554 2.99746,0.60987 1.03277,0.12688 2.07989,0.0766 3.11879,0.13656 2.00993,0.11595 4.08446,0.96915 6.02423,0.43147 0.71645,-0.19858 1.51015,-0.608901 1.82378,-1.28157 0.50656,-1.08614 0.0774,-2.44671 -0.30994,-3.580601 -1.16596,-3.41266 -2.92538,-6.99485 -5.85812,-9.10098 -3.04537,-2.187019 -7.36784,-1.52693 -10.91242,-2.7547 -1.35533,-0.46943 -2.51019,-1.54145 -3.92909,-1.75288 -2.7829,-0.41467 -5.71532,1.95364 -8.37643,1.04151 z"
       id="path980"
       sodipodi:nodetypes="csssssssssssssscc" />
    <path
       style="fill:#edc8c4;fill-opacity:1;fill-rule:evenodd;stroke:#646365;stroke-width:0.999998;stroke-linecap:butt;stroke-linejoin:miter;stroke-miterlimit:4;stroke-dasharray:none;stroke-opacity:1"
       d="m 513.01423,45.202103 c -0.89848,0.14027 -1.53385,1.00399 -2.16272,1.6595 -0.54328,0.5663 -1.02616,1.21263 -1.35386,1.92513 -0.23301,0.50661 -0.40875,1.06343 -0.41239,1.62083 -0.005,0.75076 0.25314,1.49079 0.52687,2.19012 0.24067,0.61485 0.62763,1.16268 0.96729,1.729111 0.2533,0.422439 0.39465,0.96012 0.79775,1.24392 0.49551,0.348879 1.17374,0.313229 1.7725,0.40928 0.64286,0.103139 1.31595,0.011 1.9452,0.177939 0.33664,0.0894 0.65656,0.24685 0.95056,0.433271 l 5.34037,-7.864101 c -1.09845,-0.37652 -1.3348,-2.18409 -2.46302,-2.45931 -0.53901,-0.1315 -1.03249,0.51324 -1.58723,0.50067 -0.78106,-0.0177 -1.46606,-0.53933 -2.20039,-0.80545 -0.70615,-0.25591 -1.37868,-0.87679 -2.12093,-0.76091 z"
       id="path980-3"
       sodipodi:nodetypes="sssssssssccssss" />
    <path
       style="fill:#d3a068;fill-opacity:1;fill-rule:evenodd;stroke:#646365;stroke-width:1;stroke-linecap:butt;stroke-linejoin:miter;stroke-miterlimit:4;stroke-dasharray:none;stroke-opacity:1"
       d="m 516.21731,57.658054 c 0,0 -3.53261,-4.11138 -3.8718,-6.655451 -0.31263,-2.34485 1.83679,-6.85499 1.83679,-6.85499 0,0 -2.11734,0.31413 -2.9563,0.9142 -1.26942,0.90795 -2.24637,2.31053 -2.75441,3.78623 -0.28222,0.81974 -0.24297,1.74621 -0.0889,2.599371 0.1653,0.91547 0.56466,1.795329 1.06486,2.579689 0.58576,0.918531 0.83467,1.91192 2.21313,2.404871 1.26715,0.453129 4.55665,1.22608 4.55665,1.22608 z"
       id="path1145"
       sodipodi:nodetypes="cscsssssc" />
  </g>
</svg>
