<?xml version="1.0" encoding="UTF-8" standalone="no"?>
<svg
   xmlns:dc="http://purl.org/dc/elements/1.1/"
   xmlns:cc="http://creativecommons.org/ns#"
   xmlns:rdf="http://www.w3.org/1999/02/22-rdf-syntax-ns#"
   xmlns:svg="http://www.w3.org/2000/svg"
   xmlns="http://www.w3.org/2000/svg"
   xmlns:sodipodi="http://sodipodi.sourceforge.net/DTD/sodipodi-0.dtd"
   xmlns:inkscape="http://www.inkscape.org/namespaces/inkscape"
   width="31.532442mm"
   height="33.640762mm"
   viewBox="0 0 31.532442 33.640763"
   version="1.1"
   id="svg1182"
   inkscape:version="1.0.1 (3bc2e813f5, 2020-09-07)"
   sodipodi:docname="front_leg.svg">
  <defs
     id="defs1176" />
  <sodipodi:namedview
     id="base"
     pagecolor="#ffffff"
     bordercolor="#666666"
     borderopacity="1.0"
     inkscape:pageopacity="0.0"
     inkscape:pageshadow="2"
     inkscape:zoom="0.35"
     inkscape:cx="-1021.7766"
     inkscape:cy="677.16636"
     inkscape:document-units="mm"
     inkscape:current-layer="layer1"
     inkscape:document-rotation="0"
     showgrid="false"
     fit-margin-top="0"
     fit-margin-left="0"
     fit-margin-right="0"
     fit-margin-bottom="0"
     inkscape:window-width="1920"
     inkscape:window-height="1027"
     inkscape:window-x="900"
     inkscape:window-y="178"
     inkscape:window-maximized="1" />
  <metadata
     id="metadata1179">
    <rdf:RDF>
      <cc:Work
         rdf:about="">
        <dc:format>image/svg+xml</dc:format>
        <dc:type
           rdf:resource="http://purl.org/dc/dcmitype/StillImage" />
        <dc:title></dc:title>
      </cc:Work>
    </rdf:RDF>
  </metadata>
  <g
     inkscape:label="Layer 1"
     inkscape:groupmode="layer"
     id="layer1"
     transform="translate(-376.1784,31.000267)">
    <g
       id="g1105"
       transform="matrix(0.37064378,0,0,0.36984794,-57.124762,-333.87214)"
       style="stroke-width:2.70091">
      <path
         style="fill:#43436a;fill-opacity:1;fill-rule:evenodd;stroke:#646365;stroke-width:2.70091;stroke-linecap:butt;stroke-linejoin:miter;stroke-miterlimit:4;stroke-dasharray:none;stroke-opacity:1"
         d="m 1220.009,876.95006 6.5155,-28.15638 c 0,0 -15.807,4.34909 -23.5623,6.98925 -3.5552,1.21031 -6.7609,3.88619 -10.5128,4.0521 -4.1406,0.18309 -8.4769,-1.17073 -11.9514,-3.43045 -4.2453,-2.76099 -8.448,-6.75545 -9.7528,-11.64859 -1.0319,-3.87002 0.5585,-8.13464 2.1024,-11.83036 1.727,-4.13424 3.8782,-8.73881 7.7611,-10.97433 4.2543,-2.44939 9.7639,-1.5299 14.6683,-1.31656 9.1785,0.39928 18.0259,3.63212 27.1335,4.83834 7.4825,0.99097 15.3551,-0.29018 22.5582,1.9649 2.4675,0.77249 5.3048,1.69736 6.7316,3.85357 1.2372,1.86957 1.2437,4.48226 0.7937,6.67849 -0.8235,4.01937 -4.4509,6.9285 -6.1421,10.66656 -1.0995,2.4302 -2.5725,7.57738 -2.5725,7.57738 l -6.0633,11.78379 -3.3905,6.41711 -1.7391,5.76821 c 0,0 -1.5477,4.59031 -1.2966,6.9255"
         id="path1046" />
      <path
         id="path986"
         style="fill:#80493a;fill-opacity:1;fill-rule:evenodd;stroke:#646365;stroke-width:2.70091;stroke-linecap:butt;stroke-linejoin:miter;stroke-miterlimit:4;stroke-dasharray:none;stroke-opacity:1"
         d="m 1231.2899,887.10859 c 0.4456,4.14656 2.351,8.19861 4.8632,11.52753 2.014,2.66872 7.0031,3.04127 7.8177,6.28389 0.2297,0.91446 -0.3831,1.99772 -1.1055,2.60367 -1.1083,0.92975 -2.7836,1.03561 -4.2289,0.97545 -3.2673,-0.13604 -6.4499,-1.46765 -9.3429,-2.99197 -2.9362,-1.54706 -7.8657,-6.10391 -7.8657,-6.10391 l -5.2546,-2.73242 v 0 l -5.6805,-5.67191 v 0 c 0,0 0.6108,-8.73301 3.3654,-11.72315 1.4852,-1.61213 6.1509,-2.32571 6.1509,-2.32571"
         sodipodi:nodetypes="ccccccccccccc" />
    </g>
  </g>
</svg>
