<?xml version="1.0" encoding="UTF-8" standalone="no"?>
<svg
   xmlns:dc="http://purl.org/dc/elements/1.1/"
   xmlns:cc="http://creativecommons.org/ns#"
   xmlns:rdf="http://www.w3.org/1999/02/22-rdf-syntax-ns#"
   xmlns:svg="http://www.w3.org/2000/svg"
   xmlns="http://www.w3.org/2000/svg"
   xmlns:sodipodi="http://sodipodi.sourceforge.net/DTD/sodipodi-0.dtd"
   xmlns:inkscape="http://www.inkscape.org/namespaces/inkscape"
   width="91.270401mm"
   height="91.270401mm"
   viewBox="0 0 91.270401 91.270401"
   version="1.1"
   id="svg1978"
   inkscape:version="1.0.1 (3bc2e813f5, 2020-09-07)"
   sodipodi:docname="attach_overlay.svg">
  <defs
     id="defs1972" />
  <sodipodi:namedview
     id="base"
     pagecolor="#ffffff"
     bordercolor="#666666"
     borderopacity="1.0"
     inkscape:pageopacity="0.0"
     inkscape:pageshadow="2"
     inkscape:zoom="0.35"
     inkscape:cx="92.4795"
     inkscape:cy="286.76522"
     inkscape:document-units="mm"
     inkscape:current-layer="layer1"
     inkscape:document-rotation="0"
     showgrid="false"
     fit-margin-top="0"
     fit-margin-left="0"
     fit-margin-right="0"
     fit-margin-bottom="0"
     inkscape:window-width="1920"
     inkscape:window-height="1027"
     inkscape:window-x="900"
     inkscape:window-y="178"
     inkscape:window-maximized="1" />
  <metadata
     id="metadata1975">
    <rdf:RDF>
      <cc:Work
         rdf:about="">
        <dc:format>image/svg+xml</dc:format>
        <dc:type
           rdf:resource="http://purl.org/dc/dcmitype/StillImage" />
        <dc:title></dc:title>
      </cc:Work>
    </rdf:RDF>
  </metadata>
  <g
     inkscape:label="Layer 1"
     inkscape:groupmode="layer"
     id="layer1"
     transform="translate(-81.364799,-72.29337)">
    <path
       id="path1929"
       style="fill:#cf8acb;fill-opacity:0.682007;stroke:none;stroke-width:1;stroke-linecap:round;stroke-miterlimit:4;stroke-dasharray:none;stroke-opacity:1"
       d="m 126.99977,72.29337 a 45.635196,45.635196 0 0 0 -45.634971,45.63546 45.635196,45.635196 0 0 0 45.634971,45.63494 45.635196,45.635196 0 0 0 45.63543,-45.63494 45.635196,45.635196 0 0 0 -45.63543,-45.63546 z m 0,16.35405 a 29.281289,29.281289 0 0 1 29.28141,29.28141 29.281289,29.281289 0 0 1 -29.28141,29.28141 29.281289,29.281289 0 0 1 -29.280911,-29.28141 29.281289,29.281289 0 0 1 29.280911,-29.28141 z" />
  </g>
</svg>
