<?xml version="1.0" encoding="UTF-8" standalone="no"?>
<svg
   xmlns:dc="http://purl.org/dc/elements/1.1/"
   xmlns:cc="http://creativecommons.org/ns#"
   xmlns:rdf="http://www.w3.org/1999/02/22-rdf-syntax-ns#"
   xmlns:svg="http://www.w3.org/2000/svg"
   xmlns="http://www.w3.org/2000/svg"
   xmlns:sodipodi="http://sodipodi.sourceforge.net/DTD/sodipodi-0.dtd"
   xmlns:inkscape="http://www.inkscape.org/namespaces/inkscape"
   width="134.23253mm"
   height="62.427094mm"
   viewBox="0 0 134.23253 62.427094"
   version="1.1"
   id="svg4261"
   inkscape:version="1.0.1 (3bc2e813f5, 2020-09-07)"
   sodipodi:docname="gargoyle.svg">
  <defs
     id="defs4255" />
  <sodipodi:namedview
     id="base"
     pagecolor="#ffffff"
     bordercolor="#666666"
     borderopacity="1.0"
     inkscape:pageopacity="0.0"
     inkscape:pageshadow="2"
     inkscape:zoom="0.35"
     inkscape:cx="322.2392"
     inkscape:cy="277.97246"
     inkscape:document-units="mm"
     inkscape:current-layer="layer1"
     inkscape:document-rotation="0"
     showgrid="false"
     fit-margin-top="0"
     fit-margin-left="0"
     fit-margin-right="0"
     fit-margin-bottom="0"
     inkscape:window-width="1920"
     inkscape:window-height="1027"
     inkscape:window-x="900"
     inkscape:window-y="178"
     inkscape:window-maximized="1" />
  <metadata
     id="metadata4258">
    <rdf:RDF>
      <cc:Work
         rdf:about="">
        <dc:format>image/svg+xml</dc:format>
        <dc:type
           rdf:resource="http://purl.org/dc/dcmitype/StillImage" />
        <dc:title></dc:title>
      </cc:Work>
    </rdf:RDF>
  </metadata>
  <g
     inkscape:label="Layer 1"
     inkscape:groupmode="layer"
     id="layer1"
     transform="translate(-20.574212,-74.619786)">
    <g
       id="g2513"
       transform="matrix(1.0583334,0,0,1.0583455,-354.65316,-145.49968)"
       style="stroke-width:0.944876">
      <g
         id="g2600"
         transform="translate(-376.6831,156.85497)"
         style="stroke-width:0.944876">
        <path
           style="fill:#80493a;fill-opacity:1;fill-rule:evenodd;stroke:#646365;stroke-width:0.944876;stroke-linecap:butt;stroke-linejoin:miter;stroke-miterlimit:8.40816;stroke-dasharray:none;stroke-opacity:1"
           d="m 805.25742,68.468935 c 1.31978,-2.54492 6.0704,0.15294 8.48752,-1.38848 1.39765,-0.89129 2.22468,-2.55579 2.798,-4.11114 0.94191,-2.5553 -0.57577,-5.82446 0.88664,-8.12188 0.97387,-1.52994 2.90704,-2.3241 4.65026,-2.82441 2.55815,-0.7342 5.33088,-0.32045 7.98357,-0.10511 2.70985,0.21998 5.35338,0.95296 8.03148,1.42143 0.95343,0.16678 2.05138,-0.0354 2.86128,0.49464 1.45107,0.94961 1.76672,3.0004 2.86427,4.34307 2.15534,2.6367 7.23972,7.20871 7.23972,7.20871 0,0 2.0274,4.64468 3.08512,6.94714 1.00225,2.18171 2.57022,4.16234 3.0897,6.50638 0.74347,3.35474 0.10444,6.87664 -0.0738,10.30815 -0.11086,2.13437 0.11987,4.37623 -0.61862,6.38184 -0.97166,2.63887 -2.02441,6.674585 -4.82579,6.919675 -0.67766,0.0593 -1.44031,-1.44575 -1.44031,-1.44575 l 1.42933,-4.990265 -0.8659,-3.18418 -1.61793,-2.42553 -2.32868,-0.95045 -2.57431,1.70168 -0.39016,-3.36165 -1.51347,-2.5688 -2.61048,-1.13785 -2.8787,-1.27874 -3.25959,3.08733 -1.20329,-3.33738 -3.25894,-0.32931 -2.54468,0.24251 -1.93027,3.51568 -2.37366,-2.81971 -1.88583,1.02294 0.0582,1.84183 -1.17946,1.41242 -2.84475,0.80281 -1.84229,-0.39938 c 0,0 -12.70958,-13.00446 -9.40418,-19.37822 z"
           id="path2406-3"
           sodipodi:nodetypes="ssssssssscssssscccccccccccccccccccccs" />
        <path
           style="fill:#80493a;fill-opacity:1;fill-rule:evenodd;stroke:#646365;stroke-width:0.944876;stroke-linecap:round;stroke-linejoin:miter;stroke-miterlimit:8.40816;stroke-dasharray:none;stroke-opacity:1"
           d="m 845.99471,86.915165 c 0,0 -1.08154,-14.07884 -3.74071,-20.16779 -2.16058,-4.94729 -11.52781,-14.65749 -11.52781,-14.65749"
           id="path2408-1"
           sodipodi:nodetypes="csc" />
        <path
           style="fill:#80493a;fill-opacity:1;fill-rule:evenodd;stroke:#646365;stroke-width:0.944876;stroke-linecap:round;stroke-linejoin:miter;stroke-miterlimit:8.40816;stroke-dasharray:none;stroke-opacity:1"
           d="m 834.34789,81.805835 c 0,0 -0.31414,-10.38893 -2.03654,-16.80608 -1.52533,-5.68294 -4.72311,-12.7877 -4.72311,-12.7877"
           id="path2408-3-89"
           sodipodi:nodetypes="csc" />
        <path
           style="fill:#80493a;fill-opacity:1;fill-rule:evenodd;stroke:#646365;stroke-width:0.944876;stroke-linecap:round;stroke-linejoin:miter;stroke-miterlimit:8.40816;stroke-dasharray:none;stroke-opacity:1"
           d="m 824.20005,82.335895 c 0,0 2.02084,-10.29522 1.51233,-16.92002 -0.40936,-5.33303 -4.01056,-13.20435 -4.01056,-13.20435"
           id="path2408-3-8-6"
           sodipodi:nodetypes="csc" />
        <path
           style="fill:#80493a;fill-opacity:1;fill-rule:evenodd;stroke:#646365;stroke-width:0.944876;stroke-linecap:butt;stroke-linejoin:miter;stroke-miterlimit:8.40816;stroke-dasharray:none;stroke-opacity:1"
           d="m 784.03371,68.468935 c -1.31978,-2.54492 -6.0704,0.15294 -8.48752,-1.38848 -1.39765,-0.89129 -2.22468,-2.55579 -2.798,-4.11114 -0.94191,-2.5553 0.57577,-5.82446 -0.88664,-8.12188 -0.97387,-1.52994 -2.90704,-2.3241 -4.65026,-2.82441 -2.55815,-0.7342 -5.33088,-0.32045 -7.98357,-0.10511 -2.70985,0.21998 -5.35338,0.95296 -8.03148,1.42143 -0.95343,0.16678 -2.05138,-0.0354 -2.86128,0.49464 -1.45107,0.94961 -1.76672,3.0004 -2.86427,4.34307 -2.15534,2.6367 -7.23972,7.20871 -7.23972,7.20871 0,0 -2.0274,4.64468 -3.08512,6.94714 -1.00225,2.18171 -2.57022,4.16234 -3.0897,6.50638 -0.74347,3.35474 -0.10444,6.87664 0.0738,10.30815 0.11086,2.13437 -0.11987,4.37623 0.61862,6.38184 0.97166,2.63887 2.02441,6.674585 4.82579,6.919675 0.67766,0.0593 1.44031,-1.44575 1.44031,-1.44575 l -1.42933,-4.990265 0.8659,-3.18418 1.61793,-2.42553 2.32868,-0.95045 2.57431,1.70168 0.39016,-3.36165 1.51347,-2.5688 2.61048,-1.13785 2.8787,-1.27874 3.25959,3.08733 1.20329,-3.33738 3.25894,-0.32931 2.54468,0.24251 1.93027,3.51568 2.37366,-2.81971 1.88583,1.02294 -0.0582,1.84183 1.17946,1.41242 2.84475,0.80281 1.84229,-0.39938 c 0,0 12.70958,-13.00446 9.40418,-19.37822 z"
           id="path2406"
           sodipodi:nodetypes="ssssssssscssssscccccccccccccccccccccs" />
        <path
           style="fill:#80493a;fill-opacity:1;fill-rule:evenodd;stroke:#646365;stroke-width:0.944876;stroke-linecap:round;stroke-linejoin:miter;stroke-miterlimit:8.40816;stroke-dasharray:none;stroke-opacity:1"
           d="m 743.29642,86.915165 c 0,0 1.08154,-14.07884 3.74071,-20.16779 2.16058,-4.94729 11.52781,-14.65749 11.52781,-14.65749"
           id="path2408"
           sodipodi:nodetypes="csc" />
        <path
           style="fill:#80493a;fill-opacity:1;fill-rule:evenodd;stroke:#646365;stroke-width:0.944876;stroke-linecap:round;stroke-linejoin:miter;stroke-miterlimit:8.40816;stroke-dasharray:none;stroke-opacity:1"
           d="m 754.94324,81.805835 c 0,0 0.31414,-10.38893 2.03654,-16.80608 1.52533,-5.68294 4.72311,-12.7877 4.72311,-12.7877"
           id="path2408-3"
           sodipodi:nodetypes="csc" />
        <path
           style="fill:#80493a;fill-opacity:1;fill-rule:evenodd;stroke:#646365;stroke-width:0.944876;stroke-linecap:round;stroke-linejoin:miter;stroke-miterlimit:8.40816;stroke-dasharray:none;stroke-opacity:1"
           d="m 765.09108,82.335895 c 0,0 -2.02084,-10.29522 -1.51233,-16.92002 0.40936,-5.33303 4.01056,-13.20435 4.01056,-13.20435"
           id="path2408-3-8"
           sodipodi:nodetypes="csc" />
        <path
           id="path2337"
           style="fill:#e5ceb4;fill-opacity:1;fill-rule:evenodd;stroke:#646365;stroke-width:0.944876;stroke-linecap:butt;stroke-linejoin:miter;stroke-miterlimit:8.40816;stroke-dasharray:none;stroke-opacity:1"
           d="m 794.64577,59.327365 -1.23145,1.08779 -0.92501,2.49856 -6.80733,1.83503 -4.63846,2.0438 -5.12321,4.62814 -2.81636,2.26394 -0.67593,1.70326 -0.73742,3.55947 -0.13385,2.30787 0.51935,2.7895 0.71107,4.20181 1.85571,4.62246 -0.2,3.81786 0.9834,3.331055 1.3317,3.19101 -0.16483,3.13986 -0.11319,3.29387 h 11.06858 l -2.27531,-6.7076 -1.1901,-6.885365 7.12153,1.49913 h 6.88173 l 7.12155,-1.49913 -1.19012,6.885365 -2.27478,6.7076 h 11.06805 l -0.11317,-3.29387 -0.16486,-3.13986 1.3317,-3.19101 0.98341,-3.331055 -0.2,-3.81786 1.85571,-4.62246 0.71106,-4.20181 0.51935,-2.7895 -0.13382,-2.30787 -0.73745,-3.55947 -0.6754,-1.70326 -2.81689,-2.26394 -5.1232,-4.62814 -4.63796,-2.0438 -6.80784,-1.83503 -0.92451,-2.49856 z"
           sodipodi:nodetypes="cccccccccccccccccccccccccccccccccccccccccccc" />
        <g
           id="g2579"
           transform="translate(-0.06661505)"
           style="stroke-width:0.944876">
          <path
             style="fill:#80493a;fill-opacity:1;fill-rule:evenodd;stroke:#646365;stroke-width:0.944874;stroke-linecap:butt;stroke-linejoin:miter;stroke-miterlimit:4;stroke-dasharray:none;stroke-opacity:1"
             d="m 783.61982,77.554019 -2.33918,-3.707047 -1.78934,-1.943822 -0.91378,-1.8e-5 -0.31225,0.973428 0.2439,1.006152 0.22057,1.475793 0.19361,1.215165 0.85822,2.071247 0.9671,0.922558 0.66498,-0.110944 0.52753,0.588592 1.28341,2.207535"
             id="path2560-3" />
          <path
             style="fill:#80493a;fill-opacity:1;fill-rule:evenodd;stroke:#646365;stroke-width:0.944874;stroke-linecap:butt;stroke-linejoin:miter;stroke-miterlimit:4;stroke-dasharray:none;stroke-opacity:1"
             d="m 805.80445,77.554019 2.33918,-3.707047 1.78934,-1.943822 0.91378,-1.8e-5 0.31225,0.973428 -0.2439,1.006152 -0.22057,1.475793 -0.19361,1.215165 -0.85822,2.071247 -0.9671,0.922558 -0.66498,-0.110944 -0.52753,0.588592 -1.28341,2.207535"
             id="path2560" />
        </g>
        <path
           id="path2319"
           style="fill:#e5ceb4;fill-opacity:1;fill-rule:evenodd;stroke:#646365;stroke-width:0.944876;stroke-linecap:butt;stroke-linejoin:miter;stroke-miterlimit:8.40816;stroke-dasharray:none;stroke-opacity:1"
           d="m 785.34433,71.536179 c -2.79196,3.3949 -3.19534,8.72311 -2.19315,13.00282 0.31615,1.35011 1.91211,2.08655 2.4412,3.36827 1.04431,2.52981 0.26313,5.56792 1.27434,8.111155 0.93342,2.347578 2.31796,4.666716 4.28604,6.250756 0.94035,0.75687 2.14826,1.36218 3.35536,1.36218 1.20711,0 2.41499,-0.60534 3.35534,-1.36218 1.96808,-1.58404 3.35262,-3.903178 4.28604,-6.250756 1.01121,-2.543235 0.2299,-5.581395 1.27434,-8.111155 0.5292,-1.28178 2.12545,-2.01808 2.44171,-3.36827 1.00243,-4.27966 0.59886,-9.60794 -2.19313,-13.00282"
           sodipodi:nodetypes="csssssssssc" />
        <path
           style="fill:#80493a;fill-opacity:1;fill-rule:evenodd;stroke:#646365;stroke-width:0.944876;stroke-linecap:butt;stroke-linejoin:miter;stroke-miterlimit:8.40816;stroke-dasharray:none;stroke-opacity:1"
           d="m 789.1167,89.397769 c 0,0 1.14001,11.559501 5.39172,11.559501 4.25171,0 5.39172,-11.559501 5.39172,-11.559501 0,0 -2.95189,2.83351 -5.39172,2.83351 -2.43983,0 -5.39172,-2.83351 -5.39172,-2.83351 z"
           id="path2370"
           sodipodi:nodetypes="cscsc" />
        <g
           id="g2404"
           transform="translate(93.140644,-179.93558)"
           style="fill:#80493a;fill-opacity:1;stroke-width:0.944876;stroke-miterlimit:8.40816;stroke-dasharray:none">
          <path
             style="fill:#80493a;fill-opacity:1;fill-rule:evenodd;stroke:#646365;stroke-width:0.944876;stroke-linecap:butt;stroke-linejoin:miter;stroke-miterlimit:8.40816;stroke-dasharray:none;stroke-opacity:1"
             d="m 699.72959,263.79888 c 0,0 -0.56643,-2.87059 -3.31607,-3.78218 -2.74963,-0.91154 -3.16355,-1.02049 -3.16355,-1.02049 0,0 1.41126,2.67403 2.68226,3.79366 1.24316,1.09512 3.79736,1.00901 3.79736,1.00901 z"
             id="path2370-9"
             sodipodi:nodetypes="cscsc" />
          <path
             style="fill:#80493a;fill-opacity:1;fill-rule:evenodd;stroke:#646365;stroke-width:0.944876;stroke-linecap:butt;stroke-linejoin:miter;stroke-miterlimit:8.40816;stroke-dasharray:none;stroke-opacity:1"
             d="m 703.00597,263.79888 c 0,0 0.56643,-2.87059 3.31607,-3.78218 2.74963,-0.91154 3.16355,-1.02049 3.16355,-1.02049 0,0 -1.41126,2.67403 -2.68226,3.79366 -1.24316,1.09512 -3.79736,1.00901 -3.79736,1.00901 z"
             id="path2370-9-7"
             sodipodi:nodetypes="cscsc" />
        </g>
        <path
           style="fill:none;fill-rule:evenodd;stroke:#646365;stroke-width:0.944876;stroke-linecap:butt;stroke-linejoin:miter;stroke-miterlimit:4;stroke-dasharray:none;stroke-opacity:1"
           d="m 787.18878,75.217308 c 0,0 2.4998,1.34705 3.65982,2.1601 1.29473,0.90748 2.07875,3.01731 3.65983,3.01731 1.58108,-1e-5 2.3651,-2.10983 3.65982,-3.01731 1.16002,-0.81305 3.65982,-2.1601 3.65982,-2.1601"
           id="path2543"
           sodipodi:nodetypes="csssc" />
        <path
           style="fill:none;fill-rule:evenodd;stroke:#646365;stroke-width:0.944876;stroke-linecap:butt;stroke-linejoin:miter;stroke-miterlimit:4;stroke-dasharray:none;stroke-opacity:1"
           d="m 788.47567,73.7729 c 0,0 2.0603,0.882112 3.01638,1.414535 1.0671,0.59426 1.71327,1.975876 3.01638,1.975876 1.30311,-7e-6 1.94928,-1.381616 3.01638,-1.975876 0.95607,-0.532423 3.01637,-1.414535 3.01637,-1.414535"
           id="path2543-4"
           sodipodi:nodetypes="csssc" />
      </g>
    </g>
  </g>
</svg>
