<?xml version="1.0" encoding="UTF-8" standalone="no"?>
<svg
   xmlns:dc="http://purl.org/dc/elements/1.1/"
   xmlns:cc="http://creativecommons.org/ns#"
   xmlns:rdf="http://www.w3.org/1999/02/22-rdf-syntax-ns#"
   xmlns:svg="http://www.w3.org/2000/svg"
   xmlns="http://www.w3.org/2000/svg"
   xmlns:sodipodi="http://sodipodi.sourceforge.net/DTD/sodipodi-0.dtd"
   xmlns:inkscape="http://www.inkscape.org/namespaces/inkscape"
   width="67.342987mm"
   height="65.029984mm"
   viewBox="0 0 67.342987 65.029984"
   version="1.1"
   id="svg1108"
   inkscape:version="1.0.1 (3bc2e813f5, 2020-09-07)"
   sodipodi:docname="umbrella.svg">
  <defs
     id="defs1102" />
  <sodipodi:namedview
     id="base"
     pagecolor="#ffffff"
     bordercolor="#666666"
     borderopacity="1.0"
     inkscape:pageopacity="0.0"
     inkscape:pageshadow="2"
     inkscape:zoom="0.35"
     inkscape:cx="118.6909"
     inkscape:cy="337.17703"
     inkscape:document-units="mm"
     inkscape:current-layer="layer1"
     inkscape:document-rotation="0"
     showgrid="false"
     inkscape:window-width="1920"
     inkscape:window-height="1027"
     inkscape:window-x="900"
     inkscape:window-y="178"
     inkscape:window-maximized="1"
     fit-margin-top="0"
     fit-margin-left="0"
     fit-margin-right="0"
     fit-margin-bottom="0" />
  <metadata
     id="metadata1105">
    <rdf:RDF>
      <cc:Work
         rdf:about="">
        <dc:format>image/svg+xml</dc:format>
        <dc:type
           rdf:resource="http://purl.org/dc/dcmitype/StillImage" />
        <dc:title></dc:title>
      </cc:Work>
    </rdf:RDF>
  </metadata>
  <g
     inkscape:label="Layer 1"
     inkscape:groupmode="layer"
     id="layer1"
     transform="translate(-74.429699,-58.955244)">
    <path
       style="fill:none;fill-rule:evenodd;stroke:#646365;stroke-width:3;stroke-linecap:butt;stroke-linejoin:miter;stroke-miterlimit:4;stroke-dasharray:none;stroke-opacity:1"
       d="m 101.36093,116.21389 c 0,0 -0.0617,6.18508 3.50597,6.27065 3.56768,0.0856 3.50595,-6.2591 3.50595,-6.2591 V 87.869795"
       id="path1051"
       sodipodi:nodetypes="czcc" />
    <path
       id="path982"
       style="fill:#cf8acb;fill-opacity:1;stroke:#646365;stroke-width:2.99998;stroke-linecap:round;stroke-miterlimit:4;stroke-dasharray:none;stroke-opacity:1"
       d="m 108.10256,60.455234 a 32.17264,31.73631 0 0 0 -32.172515,31.736342 32.17264,31.73631 0 0 0 0,0.298428 9.9663197,9.9047668 0 0 1 6.4925,-2.390079 9.9663197,9.9047668 0 0 1 6.41977,2.32854 9.9663197,9.9047668 0 0 1 6.41965,-2.32854 9.9663197,9.9047668 0 0 1 6.419755,2.328659 9.9663197,9.9047668 0 0 1 6.41955,-2.328659 9.9663197,9.9047668 0 0 1 6.41987,2.328659 9.9663197,9.9047668 0 0 1 6.41966,-2.328659 9.9663197,9.9047668 0 0 1 6.41959,2.32854 9.9663197,9.9047668 0 0 1 6.41966,-2.32854 9.9663197,9.9047668 0 0 1 6.49229,2.389849 32.17264,31.73631 0 0 0 0,-0.298198 32.17264,31.73631 0 0 0 -32.17252,-31.736342 z" />
    <path
       style="fill:none;fill-rule:evenodd;stroke:#646365;stroke-width:3;stroke-linecap:butt;stroke-linejoin:miter;stroke-miterlimit:4;stroke-dasharray:none;stroke-opacity:1"
       d="m 88.843765,92.428465 c 0,0 0.50168,-13.839091 3.93732,-19.521271 3.40367,-5.6293 15.321475,-12.45196 15.321475,-12.45196"
       id="path1053"
       sodipodi:nodetypes="cac" />
    <path
       style="fill:none;fill-rule:evenodd;stroke:#646365;stroke-width:3;stroke-linecap:butt;stroke-linejoin:miter;stroke-miterlimit:4;stroke-dasharray:none;stroke-opacity:1"
       d="m 101.68317,92.428584 c 0,0 -0.80824,-11.69271 0.38044,-17.35652 1.08267,-5.15865 6.03895,-14.61683 6.03895,-14.61683"
       id="path1053-5"
       sodipodi:nodetypes="cac" />
    <path
       style="fill:none;fill-rule:evenodd;stroke:#646365;stroke-width:3;stroke-linecap:butt;stroke-linejoin:miter;stroke-miterlimit:4;stroke-dasharray:none;stroke-opacity:1"
       d="m 127.36136,92.428465 c 0,0 -0.50174,-13.839091 -3.93738,-19.521271 -3.40361,-5.6293 -15.32142,-12.45196 -15.32142,-12.45196"
       id="path1053-6"
       sodipodi:nodetypes="cac" />
    <path
       style="fill:none;fill-rule:evenodd;stroke:#646365;stroke-width:3;stroke-linecap:butt;stroke-linejoin:miter;stroke-miterlimit:4;stroke-dasharray:none;stroke-opacity:1"
       d="m 114.52195,92.428584 c 0,0 0.80823,-11.69271 -0.38044,-17.35652 -1.08268,-5.15865 -6.03895,-14.61683 -6.03895,-14.61683"
       id="path1053-5-2"
       sodipodi:nodetypes="cac" />
  </g>
</svg>
